<svg xmlns="http://www.w3.org/2000/svg" version="1.1" xmlns:xlink="http://www.w3.org/1999/xlink" xmlns:svgjs="http://svgjs.dev/svgjs" width="440" height="252.12"><g><svg viewBox="0 0 395.52 247.2" height="247.2" width="440" xmlns="http://www.w3.org/2000/svg" version="1.1" xmlns:xlink="http://www.w3.org/1999/xlink" xmlns:svgjs="http://svgjs.com/svgjs" x="0" y="2.460000000000008" viewbox="0 0 440 252.12"><g><svg></svg></g><g><svg viewBox="0 0 395.52 247.2" height="247.2" width="395.52"><g transform="matrix(1,0,0,1,75.54432,92.16993208921255)"><svg viewBox="0 0 244.43135999999998 62.86013582157487" height="62.86013582157487" width="244.43135999999998"><g><svg viewBox="0 0 244.43135999999998 62.86013582157487" height="62.86013582157487" width="244.43135999999998"><g><svg viewBox="0 0 244.43135999999998 62.86013582157487" height="62.86013582157487" width="244.43135999999998"><g><svg viewBox="0 0 244.43135999999998 62.86013582157487" height="62.86013582157487" width="244.43135999999998"><g id="textblocktransform"><svg viewBox="0 0 244.43135999999998 62.86013582157487" height="62.86013582157487" width="244.43135999999998" id="textblock"><g><svg viewBox="0 0 244.43135999999998 62.86013582157487" height="62.86013582157487" width="244.43135999999998"><g transform="matrix(1,0,0,1,0,0)"><svg width="244.43135999999998" viewBox="1.0499999523162842 -39.84000015258789 160.89999389648438 41.380001068115234" height="62.86013582157487" data-palette-color="#da4236"><path d="M1.64-1.78L1.64-1.78Q1.95-2.42 2.29-3.21 2.64-4 2.93-4.93L2.93-4.93 3.59-6.54Q3.15-7.2 2.7-7.97 2.25-8.74 1.88-9.55 1.51-10.35 1.28-11.16 1.05-11.96 1.05-12.72L1.05-12.72Q1.05-12.77 1.43-12.81 1.81-12.84 2.38-12.87 2.95-12.89 3.63-12.9 4.3-12.92 4.87-12.93 5.44-12.94 5.82-12.95 6.2-12.96 6.2-12.96L6.2-12.96Q6.76-14.43 7.3-15.75 7.84-17.07 8.37-18.41 8.91-19.75 9.45-21.15 9.99-22.56 10.52-24.17L10.52-24.17Q11.55-27.2 12.52-29.49 13.5-31.79 14.36-33.76L14.36-33.76Q14.45-34.01 14.69-34.22 14.92-34.42 15.19-34.57 15.45-34.72 15.71-34.81 15.97-34.91 16.11-34.96L16.11-34.96Q16.21-34.99 16.86-35.18 17.5-35.38 18.33-35.6 19.17-35.82 19.98-35.99 20.8-36.16 21.29-36.16L21.29-36.16 21.73-36.16Q22.12-36.16 22.47-35.97 22.83-35.79 22.95-35.25L22.95-35.25Q24.12-32.25 25.45-28.7 26.78-25.15 28.05-20.87L28.05-20.87Q28.74-18.58 29.39-16.53 30.05-14.48 30.71-12.52 31.37-10.57 32.04-8.62 32.71-6.67 33.42-4.59L33.42-4.59Q33.64-3.71 33.87-3.2 34.11-2.69 34.3-2.39 34.5-2.1 34.62-1.97 34.74-1.83 34.74-1.68L34.74-1.68Q34.74-1.54 34.28-1.39L34.28-1.39 29.03 0.32Q28.44 0.54 27.83 0.76 27.22 0.98 26.68 1.15 26.15 1.32 25.74 1.43 25.34 1.54 25.17 1.54L25.17 1.54 25.02 1.54Q24.68 1.54 24.54 1.33 24.39 1.12 24.34 0.93L24.34 0.93Q24.1 0.12 23.85-0.52 23.61-1.17 23.38-1.82 23.14-2.47 22.91-3.2 22.68-3.93 22.46-4.93L22.46-4.93Q22.41-5.05 22.19-5.14 21.97-5.22 21.67-5.27 21.36-5.32 21.02-5.33 20.68-5.35 20.39-5.35L20.39-5.35Q19.46-5.35 18.88-5.33 18.31-5.32 17.87-5.31 17.43-5.3 17.03-5.29 16.63-5.27 16.04-5.27L16.04-5.27Q15.33-5.27 14.59-5.29 13.84-5.3 13.23-5.32L13.23-5.32 11.84-5.37Q11.21-3.61 10.57-2.08 9.94-0.54 9.2 1.1L9.2 1.1Q9.16 1.29 8.97 1.42 8.79 1.54 8.59 1.54L8.59 1.54Q8.45 1.54 8.42 1.51L8.42 1.51Q6.05 0.66 4.44-0.17 2.83-1 1.64-1.78ZM18.09-23.73L18.09-23.73Q17.5-21.56 16.93-19.79 16.36-18.02 15.88-16.65 15.41-15.28 15.06-14.34 14.72-13.4 14.58-12.89L14.58-12.89 14.58-12.67Q14.58-12.52 14.55-12.48L14.55-12.48 20.41-12.48Q20.14-13.67 19.84-14.89 19.53-16.11 19.24-17.46 18.95-18.8 18.65-20.34 18.36-21.88 18.09-23.73ZM54.17-8.33L54.69-13.89Q54.76-14.67 54.84-15.53 54.93-16.38 55.05-17.31L55.05-17.31Q54.49-18.77 53.46-19.69 52.44-20.61 50.9-20.61L50.9-20.61Q49.39-20.61 48.34-19.74 47.29-18.87 46.65-17.6 46.02-16.33 45.74-14.93 45.46-13.53 45.46-12.45L45.46-12.45Q45.46-11.13 45.62-9.84 45.77-8.54 46.13-7.5 46.48-6.45 47.07-5.8 47.65-5.15 48.53-5.15L48.53-5.15Q50.68-5.22 52.02-6.13 53.37-7.03 54.17-8.33L54.17-8.33ZM66.35-36.84L63.21-2.47Q63.21-2.42 63.19-2.36 63.18-2.29 63.18-2.25L63.18-2.25Q63.18-2.12 63.19-2.05 63.21-1.98 63.21-1.9L63.21-1.9Q63.21-1.68 63.05-1.55 62.89-1.42 62.23-1.25L62.23-1.25 55.69 0.88Q55.42 0.98 54.98 1.12 54.54 1.27 54.12 1.27L54.12 1.27Q53.78 1.27 53.53 1.1 53.27 0.93 53.27 0.46L53.27 0.46Q53.27 0.02 53.28-0.24 53.29-0.51 53.31-0.74 53.32-0.98 53.35-1.25 53.39-1.51 53.44-1.95L53.44-1.95Q51.61-0.49 49.67 0.39 47.73 1.27 45.58 1.27L45.58 1.27Q43.23 1.27 41.42 0.16 39.6-0.95 38.35-2.82 37.11-4.69 36.46-7.09 35.81-9.5 35.81-12.11L35.81-12.11Q35.81-15.5 36.92-18.3 38.03-21.09 39.94-23.08 41.84-25.07 44.38-26.16 46.92-27.25 49.78-27.25L49.78-27.25Q51.32-27.25 52.72-26.44 54.12-25.63 55.37-24.37L55.37-24.37Q55.44-25.56 55.54-26.97 55.64-28.37 55.73-29.82 55.83-31.27 55.93-32.69 56.03-34.11 56.1-35.28L56.1-35.28Q56.1-35.5 56.26-35.63 56.42-35.77 57.08-35.94L57.08-35.94 63.94-37.57Q64.21-37.62 64.65-37.79 65.09-37.96 65.5-37.96L65.5-37.96Q65.82-37.96 66.1-37.82 66.38-37.67 66.38-37.26L66.38-37.26Q66.38-37.21 66.37-37.05 66.35-36.89 66.35-36.84L66.35-36.84ZM86.59-27L86.59-27Q86.69-27.25 86.96-27.25L86.96-27.25Q87.01-27.25 87.06-27.23 87.1-27.22 87.15-27.22L87.15-27.22Q88.98-26.51 90.91-26.06 92.84-25.61 94.75-25.2L94.75-25.2Q95.21-25.1 95.21-24.66L95.21-24.66Q95.21-24.34 94.92-23.68L94.92-23.68 84.86-2.29Q84.66-1.86 84.52-1.59 84.37-1.32 84.22-1.15 84.08-0.98 83.91-0.9 83.74-0.83 83.49-0.78L83.49-0.78Q81.64-0.42 79.73 0.06 77.83 0.54 75.78 1.25L75.78 1.25Q75.73 1.25 75.7 1.26 75.68 1.27 75.65 1.27L75.65 1.27 75.48 1.27Q75.36 1.27 75.29 1.18 75.21 1.1 75.19 1.03L75.19 1.03Q74.82-0.02 74.35-1.68 73.87-3.34 73.31-5.4 72.75-7.45 72.14-9.77 71.53-12.08 70.89-14.48 70.26-16.87 69.64-19.23 69.01-21.58 68.43-23.68L68.43-23.68Q68.21-24.44 68.21-24.76L68.21-24.76Q68.21-25.1 68.6-25.2L68.6-25.2Q70.5-25.61 72.55-26.06 74.6-26.51 76.44-27.22L76.44-27.22Q76.51-27.25 76.66-27.25L76.66-27.25Q76.97-27.25 77-27L77-27 80.22-10.6Q80.34-10.89 80.63-11.66 80.93-12.43 81.34-13.5 81.76-14.58 82.26-15.87 82.76-17.16 83.28-18.51 83.81-19.85 84.32-21.18 84.83-22.51 85.29-23.66 85.74-24.8 86.08-25.68 86.42-26.56 86.59-27ZM123.19-27.66L120.67-4.91Q120.65-4.81 120.65-4.72 120.65-4.64 120.65-4.57L120.65-4.57Q120.65-3.96 120.84-3.55 121.04-3.15 121.27-2.89 121.5-2.64 121.7-2.48 121.89-2.32 121.89-2.2L121.89-2.2Q121.89-1.86 121.16-1.56L121.16-1.56 114.59 1.25Q114.57 1.27 114.42 1.27L114.42 1.27Q114.23 1.27 114.03 0.93 113.84 0.59 113.65 0.06 113.47-0.46 113.31-1.06 113.15-1.66 113.03-2.17L113.03-2.17Q111.49-0.39 109.71 0.44 107.93 1.27 106.17 1.27L106.17 1.27Q104.12 1.27 102.17 0.37 100.21-0.54 98.7-2.21 97.18-3.88 96.27-6.25 95.35-8.62 95.35-11.57L95.35-11.57Q95.35-15.06 96.37-17.94 97.38-20.83 99.11-22.9 100.85-24.98 103.15-26.11 105.46-27.25 108.05-27.25L108.05-27.25Q109.88-27.25 111.52-26.5 113.15-25.76 114.62-24.58L114.62-24.58Q114.76-25.32 114.79-25.76 114.81-26.2 114.9-26.44 114.98-26.68 115.23-26.77 115.47-26.86 116.03-26.9L116.03-26.9Q117.79-27.15 119.54-27.36 121.28-27.56 123.19-27.66L123.19-27.66ZM112.35-6.88L113.37-14.11Q113.62-15.5 113.7-16.74 113.79-17.97 113.84-18.99L113.84-18.99Q113.44-19.29 112.99-19.6 112.54-19.92 112.02-20.2 111.49-20.48 110.92-20.65 110.34-20.83 109.71-20.83L109.71-20.83Q108.39-20.83 107.5-19.97 106.61-19.12 106.06-17.87 105.51-16.63 105.28-15.23 105.05-13.84 105.05-12.77L105.05-12.77Q105.05-8.91 106.06-7.12 107.07-5.32 108.88-5.32L108.88-5.32Q109.61-5.32 110.51-5.74 111.42-6.15 112.35-6.88L112.35-6.88ZM126.85-10.35L126.85-10.35Q127.16-13.7 127.48-16.97 127.8-20.24 128.04-23.68L128.04-23.68Q128.09-24.49 128.2-24.79 128.31-25.1 128.75-25.2L128.75-25.2Q130.82-25.61 133.1-26.06 135.37-26.51 137.49-27.22L137.49-27.22Q137.56-27.25 137.71-27.25L137.71-27.25Q137.98-27.25 137.98-27.05L137.98-27.05 135.78-3.27Q135.71-2.47 135.61-2.16 135.51-1.86 135.07-1.76L135.07-1.76Q133-1.12 130.87-0.34 128.75 0.44 126.38 1.25L126.38 1.25Q126.31 1.27 126.16 1.27L126.16 1.27Q125.89 1.27 125.89 1.03L125.89 1.03Q125.89 1 125.94 0.37 125.99-0.27 126.08-1.27 126.16-2.27 126.26-3.52 126.36-4.76 126.47-6.01 126.58-7.25 126.67-8.4 126.77-9.55 126.85-10.35ZM128.68-29.83L128.68-29.83Q128.75-30.88 128.79-31.45 128.82-32.01 128.85-32.29 128.87-32.57 128.87-32.64 128.87-32.71 128.88-32.75 128.9-32.79 128.91-32.9 128.92-33.01 128.95-33.36 128.97-33.72 129.02-34.4 129.07-35.08 129.16-36.28L129.16-36.28Q129.21-37.08 129.32-37.39 129.43-37.7 129.87-37.79L129.87-37.79Q131.95-38.21 134.22-38.66 136.49-39.11 138.61-39.82L138.61-39.82Q138.69-39.84 138.83-39.84L138.83-39.84Q138.91-39.7 139.03-39.65L139.03-39.65 139.1-39.6 138.56-32.91Q138.49-32.1 138.38-31.79 138.27-31.47 137.86-31.4L137.86-31.4Q135.78-31.01 133.66-30.54 131.53-30.08 129.16-29.61L129.16-29.61Q129.09-29.59 128.95-29.59L128.95-29.59Q128.68-29.59 128.68-29.83ZM158.85-18.82L154.31-18.82Q153.97-16.26 153.66-13.71 153.36-11.16 153.28-8.94L153.28-8.94Q153.28-7.98 153.43-7.35 153.58-6.71 153.86-6.35 154.14-5.98 154.53-5.82 154.92-5.66 155.41-5.66L155.41-5.66Q156.19-5.66 157.12-5.9 158.04-6.13 158.97-6.49L158.97-6.49Q159.26-6.62 159.47-6.68 159.68-6.74 159.83-6.74L159.83-6.74Q160.07-6.74 160.16-6.52 160.24-6.3 160.33-5.75 160.41-5.2 160.58-4.27 160.75-3.34 161.14-1.93L161.14-1.93Q161.17-1.81 161.18-1.72 161.19-1.64 161.19-1.56L161.19-1.56Q161.19-1.22 160.94-1.07 160.68-0.93 160.09-0.73L160.09-0.73Q159.09-0.39 157.98-0.04 156.87 0.32 155.79 0.61 154.7 0.9 153.7 1.09 152.7 1.27 151.94 1.27L151.94 1.27Q147.86 1.27 146-0.76 144.13-2.78 144.13-6.93L144.13-6.93Q144.13-7.64 144.18-8.39 144.23-9.13 144.3-9.94L144.3-9.94Q144.54-12.38 144.73-14.56 144.91-16.75 145.1-18.75L145.1-18.75 142.54-18.75Q141.22-18.75 140.64-18.86 140.05-18.97 140.05-19.31L140.05-19.31Q140.05-19.41 140.3-19.84 140.54-20.26 140.92-20.86 141.3-21.46 141.74-22.14 142.18-22.83 142.58-23.43 142.98-24.02 143.27-24.46 143.57-24.9 143.64-25L143.64-25 145.37-25Q145.59-26.86 145.73-28.11 145.86-29.37 145.95-30.2 146.03-31.03 146.11-31.48 146.18-31.93 146.26-32.15 146.35-32.37 146.48-32.43 146.62-32.5 146.84-32.54L146.84-32.54Q147.94-32.76 148.96-32.95 149.99-33.13 151.01-33.33 152.04-33.52 153.1-33.78 154.16-34.03 155.31-34.38L155.31-34.38Q155.38-34.38 155.41-34.39 155.43-34.4 155.51-34.4L155.51-34.4Q155.8-34.4 155.8-34.2L155.8-34.2 155.8-34.16Q155.68-32.81 155.42-30.42 155.16-28.03 154.85-25L154.85-25 161.39-25Q161.58-25 161.77-24.87 161.95-24.73 161.95-24.41L161.95-24.41Q161.95-24.29 161.66-23.54 161.36-22.78 160.83-21.56L160.83-21.56 159.95-19.58Q159.78-19.21 159.59-19.04 159.41-18.87 158.85-18.82L158.85-18.82Z" opacity="1" transform="matrix(1,0,0,1,0,0)" fill="#da4236" class="undefined-text-0" data-fill-palette-color="primary" id="text-0"></path></svg></g></svg></g></svg></g></svg></g></svg></g></svg></g></svg></g><g><path d="M245.816 0c68.262 0 123.6 55.338 123.6 123.6 0 68.262-55.338 123.6-123.6 123.6-54.69 0-101.085-35.521-117.371-84.75l2.99 0c16.175 47.638 61.275 81.916 114.381 81.916 66.697 0 120.766-54.069 120.765-120.766 0-66.697-54.069-120.766-120.765-120.766-53.106 0-98.205 34.278-114.381 81.916l-2.99 0c16.286-49.23 62.68-84.75 117.371-84.75z" fill="#190602" stroke="transparent" data-fill-palette-color="tertiary"></path></g></svg></g><defs></defs></svg></g></svg>